# xmcd
#
# Track frame offsets:
#	150
#	17292
#	33493
#	54647
#	70698
#	90273
#	108877
#	122586
#	140209
#	155252
#
# Disc length: 2272
#
# Revision: 1
# Processed by: cddbd v1.5.2PL0 Copyright (c) Steve Scherf et al.
# Submitted via: kJams Lite (development) 1.0patch45.2
#
DISCID=7508de0a
DTITLE=Various Artist - AS1008
DYEAR=2007
DGENRE=Country
TTITLE0=Chris Cagle - Wal-mart Parking Lot
TTITLE1=Danielle Peck - I Don't
TTITLE2=Garth Brooks/ Trisha yearwood - Love Will always Win
TTITLE3=Gary Allen - Life Ain't Always Beautiful
TTITLE4=George Striat - The Seashores of Old Mexico
TTITLE5=Little big town? - Bring It on Home
TTITLE6=Miranda Lambert - Kerosene
TTITLE7=Toby Keith - As Good As I Once was
TTITLE8=Trent Tomlinson - Drunker Than me
TTITLE9=Van Zant - Nobody gonna tell Me What to Do
EXTD=
EXTT0=
EXTT1=
EXTT2=
EXTT3=
EXTT4=
EXTT5=
EXTT6=
EXTT7=
EXTT8=
EXTT9=
PLAYORDER=
